HIERARCHY
ROOT pelvis
{
  OFFSET 0 100 0
  CHANNELS 6 Xposition Yposition Zposition Zrotation Xrotation Yrotation
  JOINT pelvis_right_femur
  {
    OFFSET -10.78128 -3.44521 -0.5502486
    CHANNELS 3 Zrotation Xrotation Yrotation
    JOINT right_femur_tibia
    {
      OFFSET -0.8047443 -44.0398 -0.1307829
      CHANNELS 3 Zrotation Xrotation Yrotation
      JOINT right_tibia_foot
      {
        OFFSET 3.006224 -47.83518 -5
        CHANNELS 3 Zrotation Xrotation Yrotation
        End Site
        {
          OFFSET 0 -5 15
        }
      }
    }
  }
  JOINT pelvis_left_femur
  {
    OFFSET 10.78128 -3.44521 -0.5502486
    CHANNELS 3 Zrotation Xrotation Yrotation
    JOINT left_femur_tibia
    {
      OFFSET 0.8047443 -44.0398 -0.1307829
      CHANNELS 3 Zrotation Xrotation Yrotation
      JOINT left_tibia_foot
      {
        OFFSET -4.370144 -48.10324 -4.275266
        CHANNELS 3 Zrotation Xrotation Yrotation
        End Site
        {
          OFFSET 0 -5 15
        }
      }
    }
  }
  JOINT pelvis_spine1
  {
    OFFSET 0 6.468898 -3.129235
    CHANNELS 3 Zrotation Xrotation Yrotation
    JOINT spine1
    {
      OFFSET 0 23.15396 4.99043
      CHANNELS 3 Zrotation Xrotation Yrotation
      JOINT spine2
      {
        OFFSET 0 20.79997 -5.064912
        CHANNELS 3 Zrotation Xrotation Yrotation
        JOINT neck
        {
          OFFSET 0 14.38658 9.616178
          CHANNELS 3 Zrotation Xrotation Yrotation
          End Site
          {
            OFFSET 0 20 0
          }
        }
      }
      JOINT right_manubrium
      {
        OFFSET -5.722621 16.35077 3.967754
        CHANNELS 3 Zrotation Xrotation Yrotation
        JOINT right_clavicle
        {
          OFFSET -13.16364 1.694482 -4.693211
          CHANNELS 3 Zrotation Xrotation Yrotation
          JOINT right_humerus
          {
            OFFSET -28.5034 -0.3100689 -2.792744
            CHANNELS 3 Zrotation Xrotation Yrotation
            JOINT right_radius
            {
              OFFSET -25.15693 0.02248979 -1.271978
              CHANNELS 3 Zrotation Xrotation Yrotation
              End Site
              {
                OFFSET -15 0 0
              }
            }
          }
        }
      }
      JOINT left_manubrium
      {
        OFFSET 5.722621 16.35077 3.967754
        CHANNELS 3 Zrotation Xrotation Yrotation
        JOINT left_clavicle
        {
          OFFSET 13.16364 1.694482 -4.693211
          CHANNELS 3 Zrotation Xrotation Yrotation
          JOINT left_humerus
          {
            OFFSET 29.39168 -1.063119 -2.237045
            CHANNELS 3 Zrotation Xrotation Yrotation
            JOINT left_radius
            {
              OFFSET 24.59957 -0.9528479 0.9047498
              CHANNELS 3 Zrotation Xrotation Yrotation
              End Site
              {
                OFFSET 15 -0 -0
              }
            }
          }
        }
      }
    }
  }
}
MOTION
Frames: 15
Frame Time: 0.0416666666667
-732.1657 74.4179 3163.686 -5.022614 -12.25299 -28.17048 3.289132 -0.8026584 7.347278 -0 22.45791 -0 3.15294 -12.03588 -10.58641 -2.672126 2.695521 -7.06592 -0 50.8805 -0 -9.011334 -9.423826 18.91341 -0.05684467 -1.579738 4.459292 2.251283 13.45326 -8.751271 1.369966 21.56524 4.984552 0.5942813 -24.53178 7.940211 -3.003556 -21.82448 12.0663 96.3943 21.27516 -22.65183 -0 0 8.903428 -18.02722 9.363695 8.55021 3.913552 -24.5256 -4.736953 -85.89761 17.01741 16.24489 0 0 -25.24935 9.975179 10.88264 1.413261
-735.2622 74.85795 3169.419 -5.199861 -12.32284 -29.10928 3.294528 2.796655 7.446326 -0 21.69092 -0 3.589381 -12.61684 -9.413161 -2.156813 -2.541851 -6.649028 -0 50.24415 -0 -8.809761 -9.215748 19.79658 -0.02323166 -1.476729 4.786717 2.005567 13.68601 -8.487448 1.359745 21.62014 4.685872 0.4698694 -24.17132 7.60483 -3.040703 -22.35726 12.1292 95.98819 21.21571 -21.56967 -0 0 10.00262 -18.56745 9.27132 9.154602 3.515622 -24.05669 -4.837724 -86.40095 16.98403 17.65294 0 0 -23.55925 9.348689 10.73745 2.176287
-738.2659 75.03161 3175.136 -5.139325 -11.97289 -29.99404 3.161005 6.049848 7.27758 -0 20.60022 -0 4.200963 -13.31264 -8.132341 -1.601093 -7.597254 -6.099554 -0 47.24357 -0 -8.677111 -9.299454 20.36142 0.01960001 -1.392086 5.136171 1.738879 13.91188 -8.196452 1.357415 21.6402 4.364371 0.3335136 -23.7871 7.259354 -3.095503 -22.94726 12.18048 95.52576 21.11414 -20.38966 -0 0 11.26241 -19.13901 9.221692 9.818293 3.142026 -23.5565 -4.920524 -86.92947 16.92482 19.15385 0 0 -21.88662 8.691605 10.5834 2.989418
-741.2146 74.91054 3180.931 -4.904708 -11.31863 -30.79831 2.923156 8.84849 6.970533 -0 19.7881 -0 4.951278 -13.99052 -6.910904 -1.080409 -11.95987 -5.515801 -0 42.77503 -0 -8.588013 -9.481123 20.6292 0.06827813 -1.334287 5.482907 1.470864 14.11 -7.897912 1.363094 21.61757 4.045134 0.1963084 -23.4078 6.93032 -3.160083 -23.55205 12.21438 95.03094 20.97926 -19.19204 -0 0 12.6044 -19.69886 9.224411 10.49906 2.82618 -23.0585 -4.97485 -87.44528 16.84501 20.63947 0 0 -20.36306 8.049223 10.42614 3.799985
-744.1437 74.54867 3186.885 -4.605656 -10.5939 -31.52015 2.600236 11.14334 6.657913 -0 19.86732 -0 5.776097 -14.35594 -5.919589 -0.7156377 -15.22606 -5.035878 -0 37.9633 -0 -8.488791 -9.664777 20.68483 0.1180068 -1.304046 5.802162 1.221143 14.26729 -7.613157 1.375077 21.55693 3.752621 0.06975377 -23.05958 6.639444 -3.225801 -24.12368 12.22919 94.53834 20.82228 -18.06318 -0 0 13.92415 -20.20983 9.273023 11.15022 2.586117 -22.59665 -4.999471 -87.913 16.75818 22.00141 0 0 -19.08351 7.459341 10.26976 4.561116
-747.0822 74.06644 3193.046 -4.335812 -10.03888 -32.15125 2.189239 12.90243 6.4303 -0 21.2849 -0 6.596439 -14.09974 -5.29716 -0.6367581 -17.15961 -4.790376 -0 33.78571 -0 -8.329944 -9.84823 20.6036 0.1630988 -1.295043 6.070915 1.007532 14.37922 -7.363463 1.390509 21.47439 3.508612 -0.03524854 -22.76431 6.402738 -3.284443 -24.61306 12.22714 94.09074 20.65559 -17.08927 -0 0 15.10082 -20.64221 9.346811 11.72317 2.424595 -22.20303 -5.001715 -88.30238 16.68387 23.13944 0 0 -18.10248 6.951029 10.1174 5.233374
-750.0478 73.62311 3199.421 -4.132583 -9.805855 -32.65642 1.673492 14.05436 6.322687 -0 24.23353 -0 7.346334 -13.06753 -5.128386 -0.9280183 -17.69235 -4.847473 -0 30.81647 -0 -8.071685 -10.06748 20.40873 0.1978074 -1.29653 6.269235 0.8447486 14.44843 -7.168351 1.406232 21.39315 3.330628 -0.1093866 -22.53847 6.230792 -3.329086 -24.97487 12.21327 93.73399 20.49161 -16.34948 -0 0 16.01204 -20.97366 9.41682 12.1712 2.332969 -21.90602 -4.994641 -88.5894 16.64347 23.96809 0 0 -17.44053 6.545443 9.972372 5.784778
-753.0409 73.37891 3205.972 -3.977969 -9.920006 -32.97159 1.047415 14.45459 6.323751 -0 28.62087 -0 7.986425 -11.36421 -5.435887 -1.582723 -16.88608 -5.181145 -0 29.13285 -0 -7.674714 -10.34348 20.08424 0.2172681 -1.297048 6.381222 0.7438016 14.48149 -7.044161 1.419488 21.33717 3.230947 -0.1458208 -22.39296 6.129747 -3.35461 -25.17233 12.19372 93.51029 20.34171 -15.90923 -0 0 16.55094 -21.18812 9.4544 12.45444 2.297428 -21.72879 -4.992866 -88.75559 16.65507 24.42121 0 0 -17.09793 6.257998 9.839436 6.189603
-756.0421 73.44984 3212.608 -3.831172 -10.29148 -33.0219 0.349449 13.89708 6.387956 -0 34.04526 -0 8.484661 -9.348069 -6.179933 -2.491364 -14.89145 -5.67984 -0 28.36757 -0 -7.101037 -10.66711 19.62506 0.2183478 -1.28828 6.395831 0.7118793 14.48492 -7.002826 1.428376 21.32432 3.216138 -0.140893 -22.33345 6.102423 -3.357994 -25.18139 12.17375 93.45086 20.21547 -15.81366 -0 0 16.64286 -21.27481 9.439974 12.54506 2.305738 -21.68799 -5.008019 -88.78688 16.72868 24.45525 0 0 -17.07036 6.100819 9.725858 6.426869
-759.0183 73.86449 3219.202 -3.670923 -10.75997 -32.756 -0.3172155 12.17551 6.44151 -0 39.76877 -0 8.781198 -7.505135 -7.257152 -3.468479 -11.92296 -6.190554 -0 27.8875 -0 -6.342056 -11.02764 19.07786 0.2002323 -1.268067 6.30791 0.7522751 14.46165 -7.050632 1.432093 21.36088 3.2869 -0.09460778 -22.36102 6.149189 -3.338486 -24.99416 12.15614 93.5693 20.12024 -16.08149 -0 0 16.25952 -21.22775 9.369715 12.43196 2.35268 -21.79206 -5.044803 -88.67322 16.86261 24.05248 0 0 -17.36072 6.084295 9.641544 6.479642
-761.9395 74.54213 3225.629 -3.519811 -11.15708 -32.18117 -0.8060542 9.185093 6.393226 -0 44.75466 -0 8.782606 -6.242179 -8.504183 -4.310889 -8.240881 -6.579155 -0 27.07218 -0 -5.46815 -11.45967 18.52834 0.1646181 -1.241731 6.11956 0.8639804 14.4093 -7.186878 1.431033 21.43881 3.438075 -0.0107773 -22.47285 6.268289 -3.297647 -24.62137 12.14035 93.85706 20.06099 -16.7 -0 0 15.42816 -21.04616 9.258143 12.12364 2.442561 -22.03915 -5.098641 -88.4104 17.04207 23.22528 0 0 -17.98194 6.21674 9.597811 6.336166
-764.7982 75.31106 3231.81 -3.425349 -11.36928 -31.37329 -1.002873 5.035108 6.164639 -0 47.87177 -0 8.416432 -5.706627 -9.730308 -4.871453 -4.122665 -6.781392 -0 25.60448 -0 -4.657963 -12.06295 18.03738 0.1154063 -1.220991 5.841479 1.040963 14.32104 -7.402758 1.426731 21.53712 3.658946 0.1033547 -22.6626 6.455544 -3.239059 -24.09282 12.12285 94.28268 20.04055 -17.62286 -0 0 14.23213 -20.73556 9.135165 11.64822 2.587623 -22.41523 -5.155834 -88.00419 17.24101 22.02043 0 0 -18.94816 6.501684 9.604569 5.993339
-767.6205 75.96767 3237.746 -3.405124 -11.37113 -30.44834 -0.9089927 0.1091934 5.728372 -0 48.2796 -0 7.712007 -5.763994 -10.78115 -5.116556 0.170963 -6.817904 -0 23.61536 -0 -4.150013 -12.95429 17.58977 0.05790933 -1.220349 5.493436 1.271615 14.1891 -7.681181 1.421531 21.6275 3.933997 0.238134 -22.92044 6.703507 -3.167605 -23.45483 12.09868 94.79624 20.05999 -18.77304 -0 0 12.79977 -20.30941 9.037562 11.04979 2.802234 -22.89332 -5.19681 -87.47507 17.42776 20.52095 0 0 -20.25595 6.933224 9.666442 5.461971
-770.4629 76.34825 3243.509 -3.413193 -11.20881 -29.51597 -0.6469071 -4.994477 5.125258 -0 45.81576 -0 6.821011 -6.148068 -11.58964 -5.126674 4.408007 -6.763431 -0 21.58116 -0 -4.118499 -14.16174 17.11685 -0.002228015 -1.251823 5.103041 1.539012 14.00989 -7.998172 1.417945 21.68308 4.244171 0.3829864 -23.23252 7.000355 -3.088404 -22.76407 12.06371 95.3385 20.11879 -20.05162 -0 0 11.28214 -19.7906 8.997207 10.38188 3.094369 -23.43499 -5.202094 -86.86071 17.57359 18.8418 0 0 -21.86284 7.490974 9.77936 4.771968
-773.394 76.37745 3249.21 -3.375004 -10.95391 -28.65115 -0.3664316 -9.638579 4.453231 -0 41.10947 -0 5.940757 -6.638409 -12.17173 -5.031283 8.369348 -6.695315 -0 20.06877 -0 -4.570918 -15.5418 16.57165 -0.06004487 -1.319944 4.702547 1.822293 13.78854 -8.325954 1.417823 21.68701 4.568314 0.5278548 -23.58018 7.328927 -3.005831 -22.07911 12.01674 95.85254 20.2142 -21.35102 -0 0 9.825139 -19.21226 9.030363 9.699993 3.457534 -23.99451 -5.159296 -86.2132 17.66118 17.11818 0 0 -23.67351 8.137031 9.929556 3.974675
